<svg width="44" height="41" fill="none" xmlns="http://www.w3.org/2000/svg"><path d="M40.667 19.222H38v-2.666h2.667v2.666ZM32.667 24.556H30v-2.667h2.667v2.667ZM30 27.222h-2.667v-2.666H30v2.666ZM30 32.556h-2.667v-2.667H30v2.667ZM32.667 35.222H30v-2.666h2.667v2.666ZM35.333 37.889h-2.666v-2.667h2.666v2.667ZM11.333 37.889H8.667v-2.667h2.666v2.667ZM14 35.222h-2.667v-2.666H14v2.666ZM16.667 32.556H14v-2.667h2.667v2.667ZM16.667 27.222H14v-2.666h2.667v2.666ZM14 24.556h-2.667v-2.667H14v2.667ZM6 19.222H3.333v-2.666H6v2.666ZM16.667 29.889h2.666v-2.667h-2.666v2.667Z" fill="#2555FE"/><path d="M24.667 29.889h2.666v-2.667h-2.666v2.667ZM11.333.556v2.666h21.334V.556H11.333ZM3.333 3.222V5.89h8V3.222h-8ZM6 8.556h2.667v5.333H6V8.556ZM3.333 5.889H.667v10.667h2.666V5.889ZM38 13.889h-2.667V8.556H38v5.333ZM32.667 3.222V5.89h8V3.222h-8ZM43.333 5.889h-2.666v10.667h2.666V5.889ZM38 21.889v-2.667h-5.333v2.667H38ZM11.333 21.889v-2.667H6v2.667h5.333ZM32.667 40.556v-2.667H11.333v2.667h21.334Z" fill="#2555FE"/></svg>