<svg width="30" height="41" fill="none" xmlns="http://www.w3.org/2000/svg"><path fill-rule="evenodd" clip-rule="evenodd" d="M19.333.667h-2.666v2.666H14V6h-2.667v2.667H8.667v2.666H6v5.334h2.667v-5.334h2.666V8.667H14V6h2.667V3.333h8V6h2.666v8h-2.666v2.667H22v2.666h-2.667v-2.666h-8v2.666H8.667V22H6v2.667H3.333v2.666H.667v8h2.666V38H6v2.667h8V38h2.667v-2.667h2.666v-2.666H22V30h2.667v-5.333H22V30h-2.667v2.667h-2.666v2.666H14V38H6v-2.667H3.333v-8H6v-2.666h2.667V22h2.666v2.667h8V22H22v-2.667h2.667v-2.666h2.666V14H30V6h-2.667V3.333h-2.666V.667h-5.334Zm0 21.333h-8v-2.667h8V22Z" fill="#2555FE"/></svg>