<svg width="38" height="38" fill="none" xmlns="http://www.w3.org/2000/svg"><path d="M29.668 3.222H27V5.89h2.666V3.222ZM8.334 32.556h2.667v2.666H8.334v-2.666ZM27 3.222V.556H3v2.666h24Z" fill="#2555FE"/><path d="M3 3.222H.335v8h2.667v-8Z" fill="#2555FE"/><path d="M8.334 5.889H5.668v5.333H3v2.667h2.667v18.667h2.666V5.889ZM24.334 13.889v-2.667H13.668v2.667h10.666ZM19 21.889v-2.667h-5.332v2.667H19Z" fill="#2555FE"/><path d="M13.668 27.222v2.667H35v-2.667h-2.667V5.89h-2.667v21.333h-16ZM37.667 29.889h-2.666v5.333h2.666V29.89ZM11 35.222v2.667h24v-2.667H11Z" fill="#2555FE"/></svg>