<svg width="35" height="44" fill="none" xmlns="http://www.w3.org/2000/svg"><path fill-rule="evenodd" clip-rule="evenodd" d="M13.333 35.333V38H16v-2.667h5.333v-2.666H16V30h5.333v-2.667H24V22h-2.667v-2.667h-8v8h-2.666V30h2.666v2.667h-2.666v2.666h2.666Zm8-13.333H16v5.333h5.333V22Z" fill="#2555FE"/><path fill-rule="evenodd" clip-rule="evenodd" d="M8 .667v2.666H5.333v5.334H8v2.666h2.667V14H8v2.667H5.333v2.666H2.667V22H0v13.333h2.667V38h2.666v2.667H8v2.666h18.667v-2.666h2.666V38H32v-2.667h2.667V22H32v-2.667h-2.667v-2.666h-2.666V14H24v-2.667h2.667V8.667h2.666V3.333h-2.666V.667H8Zm18.667 2.666v5.334H24v2.666H10.667V8.667H8V3.333h5.333V6H16V3.333h2.667V6h2.666V3.333h5.334ZM24 14v2.667h2.667v2.666h2.666V22H32v13.333h-2.667V38h-2.666v2.667H8V38H5.333v-2.667H2.667V22h2.666v-2.667H8v-2.666h2.667V14H24Z" fill="#2555FE"/></svg>