<?xml version="1.0" standalone="no"?>
<!DOCTYPE svg PUBLIC "-//W3C//DTD SVG 20010904//EN"
 "http://www.w3.org/TR/2001/REC-SVG-20010904/DTD/svg10.dtd">
<svg version="1.0" xmlns="http://www.w3.org/2000/svg"
 width="1024.000000pt" height="1024.000000pt" viewBox="0 0 1024.000000 1024.000000"
 preserveAspectRatio="xMidYMid meet">

<g transform="translate(0.000000,1024.000000) scale(0.100000,-0.100000)"
fill="currentColor" stroke="none">
<path d="M5840 10200 l0 -40 -150 0 -150 0 0 -35 0 -34 -112 -3 -113 -3 -3
-37 -3 -38 -109 0 -109 0 -3 -37 -3 -38 -75 -3 -76 -3 4 -34 4 -35 -81 0 -81
0 0 -40 0 -40 -75 0 -75 0 0 -35 0 -35 -75 0 -75 0 0 -40 0 -40 -40 0 -40 0 0
-40 0 -40 -75 0 -75 0 0 -35 c0 -33 -2 -35 -35 -35 -34 0 -35 -1 -35 -40 l0
-40 -41 0 c-40 0 -40 -1 -37 -32 3 -32 1 -33 -34 -36 -37 -3 -38 -4 -38 -43 0
-39 0 -39 -40 -39 -39 0 -40 -1 -40 -35 0 -33 -2 -35 -35 -35 -34 0 -35 -1
-35 -40 l0 -40 -40 0 -40 0 0 -40 c0 -39 -1 -40 -35 -40 -33 0 -35 -2 -35 -35
0 -34 -1 -35 -40 -35 l-40 0 0 -40 c0 -39 -1 -40 -35 -40 l-34 0 -3 -72 -3
-73 -37 -3 c-35 -3 -37 -5 -40 -40 -3 -35 -5 -37 -40 -40 l-38 -3 0 -75 0 -74
-35 0 -35 0 0 -75 0 -75 -40 0 -40 0 0 -75 0 -75 -39 0 c-38 0 -38 0 -35 -37
2 -21 1 -55 -2 -75 -5 -35 -8 -38 -40 -38 l-34 0 0 -75 0 -75 -35 0 -35 0 0
-115 0 -115 -40 0 -40 0 0 -230 0 -230 -40 0 -40 0 0 -490 0 -490 40 0 40 0 0
-190 0 -190 40 0 40 0 0 -150 0 -150 35 0 35 0 0 -74 0 -75 38 -3 37 -3 3 -72
3 -73 34 0 c34 0 35 -1 35 -40 l0 -40 -40 0 -40 0 0 -40 0 -40 -74 0 -75 0 -3
-37 -3 -38 -72 -3 -73 -3 0 -34 c0 -34 -1 -35 -40 -35 l-40 0 0 -40 c0 -39 -1
-40 -35 -40 -34 0 -35 -1 -35 -40 0 -38 -2 -40 -30 -40 l-30 0 0 -565 0 -565
-25 0 c-22 0 -25 4 -25 35 l0 34 -97 3 -98 3 -3 38 -3 37 -155 0 -154 0 0 40
0 40 -262 -2 -263 -3 -3 -37 c-3 -36 -5 -38 -38 -38 l-34 0 0 -75 0 -75 35 0
c32 0 35 -2 35 -30 l0 -30 245 0 245 0 0 -40 0 -40 123 0 c67 0 146 -3 175 -6
51 -7 52 -7 52 -40 l0 -34 80 0 80 0 0 -40 0 -40 45 0 45 0 0 -40 0 -40 -40 0
-40 0 0 -40 0 -40 -115 0 -115 0 0 -40 0 -40 -135 0 -135 0 0 -40 0 -40 -445
0 -445 0 0 40 0 40 -150 0 -150 0 0 40 0 39 -113 3 -112 3 -3 37 c-3 35 -5 37
-40 40 -35 3 -37 5 -37 38 0 33 2 35 38 38 36 3 37 4 37 43 l0 41 75 -4 75 -3
0 38 0 37 75 0 75 0 0 110 0 110 -35 0 c-34 0 -35 1 -35 40 l0 40 -75 0 -75 0
0 -40 0 -40 -75 0 -75 0 0 -35 c0 -34 -1 -35 -40 -35 l-40 0 0 -40 0 -40 -70
0 -70 0 0 -75 0 -75 -40 0 -40 0 0 -1440 0 -1440 35 0 35 0 0 -75 0 -75 40 0
40 0 0 -40 c0 -39 1 -40 35 -40 33 0 35 -2 35 -35 l0 -35 80 0 80 0 0 -30 c0
-29 1 -30 50 -30 49 0 50 -1 50 -30 l0 -30 60 0 c47 0 60 -3 60 -15 0 -12 19
-15 110 -15 l110 0 0 -40 0 -40 519 0 520 0 3 38 3 37 115 5 c72 3 113 9 110
15 -3 6 17 11 47 13 51 3 53 4 53 33 0 29 1 29 55 29 54 0 55 0 55 30 l0 30
80 0 c59 0 80 3 79 13 -4 35 2 47 26 47 20 0 25 5 25 25 0 16 6 25 15 25 9 0
15 -9 15 -25 0 -20 5 -25 25 -25 21 0 25 -5 25 -30 l0 -30 75 0 75 0 0 -30 c0
-29 1 -30 50 -30 49 0 50 -1 50 -30 l0 -30 60 0 c47 0 60 -3 60 -15 0 -12 19
-15 110 -15 l110 0 0 -40 0 -40 530 0 530 0 0 40 0 40 115 0 c87 0 114 3 113
13 -2 8 14 13 50 15 50 3 52 4 52 33 0 29 1 29 55 29 54 0 55 0 55 30 l0 30
65 0 65 0 0 30 c0 28 3 30 35 30 31 0 35 3 35 25 0 16 6 25 15 25 9 0 15 -9
15 -25 0 -22 4 -25 35 -25 32 0 35 -2 35 -30 l0 -30 69 0 70 0 -2 -27 c-2 -27
0 -28 51 -31 50 -3 52 -4 52 -33 0 -28 1 -29 50 -29 38 0 50 -4 50 -15 0 -13
21 -15 125 -15 l125 0 0 -40 0 -40 510 0 510 0 0 40 0 40 115 0 c96 0 115 3
115 15 0 11 12 15 50 15 49 0 50 1 50 30 0 29 1 29 63 32 59 3 62 4 62 28 0
24 3 25 78 28 l77 3 0 34 c0 33 2 35 35 35 34 0 35 1 35 40 l0 40 40 0 40 0 0
70 0 70 30 0 30 0 0 765 0 765 -30 -4 c-29 -3 -30 -2 -30 35 0 39 0 39 -40 39
l-40 0 0 40 c0 39 -1 40 -35 40 -34 0 -35 1 -35 40 l0 39 -77 3 -78 3 -3 32
-3 33 -85 0 -84 0 0 40 0 40 -145 0 -145 0 0 40 0 40 -488 0 -487 0 0 -38 0
-37 -147 -3 -147 -3 -3 -37 -3 -37 -97 -3 -98 -3 0 -34 c0 -33 -2 -35 -35 -35
l-35 0 0 530 0 530 55 0 55 0 0 -41 0 -41 188 3 187 4 3 -38 3 -37 569 0 568
0 -4 35 -4 35 189 0 190 0 3 38 3 37 112 3 112 3 3 37 3 37 113 0 112 0 0 38
0 37 75 0 75 0 0 40 0 40 75 0 75 0 0 35 0 35 74 0 75 0 3 38 c3 35 5 37 40
40 35 3 37 5 40 40 l3 37 73 0 72 0 0 38 c0 37 0 37 40 37 l40 0 0 40 c0 40 0
40 39 40 25 0 39 5 38 12 -2 51 3 58 38 58 34 0 35 1 35 40 l0 40 40 0 40 0 0
41 0 42 35 -6 35 -6 0 40 c0 39 0 39 40 39 l40 0 0 40 c0 39 1 40 35 40 33 0
35 2 35 35 0 34 1 35 40 35 l40 0 0 40 0 40 40 0 40 0 0 41 0 40 35 -5 34 -6
3 78 3 77 38 3 c35 3 37 5 37 38 0 32 2 34 35 34 l35 0 2 53 c1 28 2 62 2 74
0 20 6 23 38 23 38 0 38 0 38 40 0 40 0 40 38 40 l37 0 0 112 0 113 38 3 37 3
0 75 0 74 40 0 40 0 0 75 0 75 35 0 35 0 0 150 0 150 40 0 40 0 0 190 0 190
35 0 35 0 0 490 0 490 -35 0 -35 0 0 230 0 230 -40 0 -40 0 0 115 0 115 -35 0
-35 0 0 75 0 75 -40 0 -40 0 0 75 0 75 -35 0 -35 0 0 75 0 75 -40 0 -40 0 0
74 0 75 -37 3 -38 3 -3 73 -3 72 -34 0 c-34 0 -35 1 -35 40 l0 40 -40 0 -40 0
0 75 0 75 -35 0 c-34 0 -35 1 -35 40 l0 40 -40 0 c-39 0 -40 1 -40 35 0 33 -2
35 -35 35 -34 0 -35 1 -35 40 l0 40 -40 0 -40 0 0 40 0 40 -40 0 c-39 0 -40 1
-40 34 0 33 -2 35 -37 38 -35 3 -37 5 -38 38 l0 35 -72 3 -73 3 0 -41 0 -40
-40 0 -40 0 0 -110 0 -110 40 0 40 0 0 -40 0 -40 40 0 c39 0 40 -1 40 -35 0
-33 2 -35 35 -35 34 0 35 -1 35 -40 l0 -40 40 0 c39 0 40 -1 40 -34 0 -33 2
-35 38 -38 36 -3 37 -4 37 -41 0 -36 1 -37 38 -37 37 0 37 0 37 -40 l0 -40 40
0 40 0 0 -75 0 -75 35 0 c33 0 35 -2 35 -34 0 -33 2 -35 38 -38 l37 -3 3 -77
3 -78 34 6 35 5 0 -115 0 -116 40 0 40 0 0 -77 0 -78 37 0 38 0 3 -112 3 -113
34 0 35 0 0 -152 0 -153 37 0 38 0 0 -570 0 -570 -37 -3 -38 -3 0 -150 0 -149
-35 0 -35 0 -2 -77 c0 -43 -2 -82 -3 -88 -2 -5 -3 -38 -4 -72 l-1 -63 -35 0
c-34 0 -35 -1 -35 -40 l0 -40 -40 0 -40 0 0 -115 0 -115 -35 0 -35 0 0 -75 0
-75 -40 0 -40 0 0 -74 0 -75 -37 -3 c-36 -3 -38 -5 -41 -40 -3 -36 -5 -38 -38
-38 -32 0 -34 -2 -34 -35 0 -36 2 -35 -60 -39 -10 -1 -16 -14 -18 -38 -3 -36
-5 -38 -38 -38 l-34 0 0 -75 0 -75 -40 0 -40 0 0 -40 c0 -39 -1 -40 -35 -40
-33 0 -35 -2 -35 -35 0 -34 -1 -35 -40 -35 l-40 0 0 -40 0 -40 -40 0 -40 0 0
-41 0 -42 -35 6 -35 6 0 -40 c0 -39 0 -39 -39 -39 -39 0 -40 -1 -43 -37 -2
-21 -9 -39 -15 -39 -7 -1 -40 -2 -73 -3 l-60 -1 0 -35 c0 -33 -2 -35 -34 -35
-33 0 -35 -2 -38 -38 l-3 -37 -77 -3 -78 -3 0 -34 0 -35 -75 0 -75 0 0 -40 0
-40 -75 0 -75 0 0 -40 0 -40 -75 0 -75 0 0 -35 0 -35 -155 0 -155 0 0 -40 0
-40 -150 0 -150 0 0 -35 0 -35 -570 0 -570 0 0 35 0 34 -152 3 -153 3 -3 38
-3 37 -90 0 -89 0 0 564 0 565 -27 3 c-24 3 -28 8 -31 41 -3 34 -6 37 -33 37
-27 0 -29 2 -29 40 0 39 -1 40 -35 40 -33 0 -35 2 -35 35 l0 34 -77 3 -78 3
-3 38 -3 37 -80 0 -79 0 0 38 0 37 -145 -3 -145 -3 0 40 0 41 -527 2 -528 3
-3 113 -3 112 -39 0 -40 0 0 75 0 75 -35 0 -35 0 0 115 0 115 -35 0 -35 0 0
149 0 150 -37 3 -38 3 -3 568 -2 567 40 0 40 0 0 155 0 155 35 0 34 0 3 113 3
112 33 3 32 3 0 75 0 74 40 0 39 0 3 112 3 112 35 1 35 0 5 75 5 75 38 3 c35
3 37 5 37 38 0 32 2 34 35 34 l35 0 0 74 0 75 38 3 c35 3 37 5 40 41 3 35 5
37 38 37 33 0 34 1 34 40 l0 40 40 0 c39 0 40 1 40 35 0 34 1 35 39 35 30 0
38 4 38 18 0 59 2 62 38 62 33 0 35 2 35 35 0 33 2 35 35 35 34 0 35 1 35 40
l0 40 40 0 c39 0 40 1 40 35 0 33 2 35 35 35 34 0 35 1 35 40 l0 40 40 0 40 0
0 40 c0 39 1 40 35 40 33 0 35 2 35 35 0 34 1 35 40 35 l40 0 0 40 0 40 75 0
75 0 0 35 c0 34 1 35 40 35 l40 0 0 40 0 40 75 0 75 0 0 40 0 40 115 0 115 0
0 35 0 34 113 3 112 3 0 35 1 35 72 3 72 3 0 34 0 35 190 0 190 0 0 40 0 40
500 0 500 0 0 -40 0 -40 185 0 185 0 0 -35 0 -34 78 -3 77 -3 3 -37 3 -38 115
0 114 0 0 -35 0 -35 110 0 110 0 0 -40 0 -40 75 0 75 0 0 -40 0 -40 40 0 c39
0 40 -1 40 -34 0 -33 2 -35 38 -38 35 -3 37 -5 40 -40 l3 -38 69 0 69 0 3 38
c3 35 5 37 41 40 l37 3 0 109 0 109 -37 3 c-36 3 -38 5 -41 41 l-3 37 -75 0
-74 0 0 35 0 35 -75 0 -75 0 0 40 0 40 -75 0 -75 0 0 35 0 34 -77 3 -78 3 -3
38 -3 37 -110 0 -109 0 0 40 0 40 -115 0 -115 0 0 35 0 35 -150 0 -150 0 0 40
0 40 -570 0 -570 0 0 -40z m-1370 -5295 l0 -35 155 0 155 0 0 -45 0 -45 100 0
100 0 0 -34 c0 -32 2 -35 40 -41 38 -6 40 -9 40 -41 0 -33 -1 -34 -40 -34
l-40 0 0 -40 0 -40 -115 0 -115 0 0 -45 0 -45 -145 0 -145 0 0 -35 0 -35 -445
0 -445 0 0 35 0 34 -147 3 -148 3 -3 43 -3 42 -110 0 -109 0 0 38 c0 36 -1 37
-37 37 -38 0 -38 0 -38 40 0 39 1 40 38 43 35 3 37 5 37 38 l0 34 104 0 105 0
3 43 3 42 153 3 152 3 0 34 0 35 450 0 450 0 0 -35z m-1420 -615 l0 -40 104 0
105 0 3 -37 3 -38 113 -3 112 -3 0 -34 0 -35 530 0 530 0 0 35 0 34 113 3 112
3 3 38 3 37 99 0 99 0 3 38 c3 35 5 37 38 37 l35 0 0 -190 0 -190 -37 -3 c-36
-3 -38 -5 -38 -38 l0 -34 -110 0 -110 0 0 -45 0 -45 -150 0 -150 0 0 -35 c0
-31 -3 -35 -32 -40 -18 -3 -217 -4 -443 -3 l-410 3 -3 38 -3 37 -150 0 -149 0
0 45 0 45 -110 0 -110 0 0 35 c0 34 -1 35 -40 35 l-40 0 0 188 c0 104 3 192 7
195 3 4 21 7 40 7 32 0 33 -1 33 -40z m0 -685 l0 -35 105 0 105 0 0 -40 0 -40
115 0 115 0 0 -35 0 -35 530 0 530 0 0 35 0 35 115 0 115 0 0 40 0 40 100 0
100 0 0 35 c0 34 1 35 40 35 l40 0 0 -190 0 -190 -40 0 -40 0 0 -40 0 -40
-115 0 -115 0 0 -40 0 -40 -145 0 -145 0 0 -40 0 -40 -442 2 -443 3 -3 38 -3
37 -145 0 -144 0 0 40 0 40 -115 0 -115 0 0 40 0 40 -40 0 -40 0 0 190 0 190
40 0 c39 0 40 -1 40 -35z m-2362 -687 l3 -38 75 0 74 0 0 -35 0 -35 145 0 145
0 0 -40 0 -40 530 0 530 0 0 40 0 40 134 0 135 0 3 38 3 37 72 0 73 0 0 38 c0
36 1 37 35 37 l35 0 0 -190 0 -190 -40 0 -40 0 0 -40 0 -40 -115 0 -115 0 0
-40 0 -40 -145 0 -145 0 0 -40 0 -40 -435 0 -435 0 0 40 0 40 -150 0 -150 0 0
40 0 40 -115 0 -115 0 0 40 c0 40 0 40 -37 40 l-38 0 0 183 c0 100 2 186 3
190 1 5 19 7 40 5 35 -3 37 -5 40 -40z m2362 7 l0 -34 68 -3 67 -3 3 -37 3
-38 150 0 149 0 0 -40 0 -40 530 0 530 0 0 40 0 40 144 0 145 0 3 38 3 37 68
3 67 3 0 35 c0 35 1 35 38 32 l37 -3 3 -187 2 -188 -40 0 -40 0 0 -40 0 -40
-115 0 -115 0 0 -40 0 -40 -145 0 -145 0 0 -40 0 -40 -445 0 -445 0 0 40 0 41
-142 -2 -143 -1 -3 41 -3 41 -115 0 -114 0 0 40 0 40 -40 0 -40 0 0 190 0 190
40 0 c39 0 40 -1 40 -35z m-2362 -687 l3 -38 75 0 74 0 0 -37 0 -38 145 3 145
3 0 -40 0 -41 525 0 525 0 0 40 0 40 125 0 125 0 0 35 0 35 84 0 85 0 3 38 c3
35 5 37 41 40 l37 3 -2 -183 -3 -183 -42 -3 c-40 -3 -43 -5 -43 -33 0 -27 -3
-29 -35 -29 -28 0 -35 -4 -35 -20 0 -18 -7 -20 -80 -20 l-80 0 0 -40 0 -40
-140 0 -140 0 0 -35 0 -35 -435 0 -435 0 0 35 0 35 -150 0 -150 0 0 40 0 40
-75 0 c-68 0 -75 2 -75 20 0 16 -7 20 -35 20 -32 0 -35 2 -35 30 0 28 -2 30
-39 30 l-38 0 -7 77 c-8 102 -8 278 1 287 4 4 23 6 43 4 33 -3 35 -5 38 -40z
m2362 2 l0 -40 105 0 105 0 0 -35 0 -35 115 0 115 0 0 -40 0 -40 530 0 530 0
0 41 0 40 113 -2 112 -2 3 37 3 36 100 0 99 0 0 40 0 40 40 0 40 0 -2 -182 -3
-183 -42 -3 c-40 -3 -43 -5 -43 -33 0 -27 -3 -29 -35 -29 -28 0 -35 -4 -35
-20 0 -18 -7 -20 -80 -20 l-80 0 0 -40 0 -40 -145 0 -145 0 0 -35 0 -35 -435
0 -435 0 0 35 0 35 -145 0 -145 0 0 40 0 40 -80 0 c-73 0 -80 2 -80 20 0 16
-7 20 -35 20 -33 0 -35 2 -35 33 0 31 -1 32 -42 32 l-43 0 -3 183 -2 182 40 0
40 0 0 -40z m3770 -58 l0 -37 140 3 140 4 0 -41 0 -41 44 0 c25 0 48 -4 51
-10 3 -5 42 -10 86 -10 l79 0 0 -40 c0 -39 1 -40 35 -40 33 0 35 -2 35 -35 0
-33 -2 -35 -35 -35 -31 0 -35 -3 -35 -25 0 -22 -4 -25 -40 -25 -33 0 -40 -3
-40 -20 0 -18 -7 -20 -80 -20 l-80 0 0 -40 0 -40 -150 0 -150 0 0 -35 0 -35
-430 0 -430 0 0 35 0 35 -145 0 -145 0 0 40 0 40 -75 0 c-67 0 -75 2 -75 19 0
14 -8 21 -27 23 -20 2 -29 9 -31 25 -3 19 -9 22 -40 20 -37 -2 -37 -2 -37 38
0 39 1 40 35 40 33 1 35 3 38 37 l3 35 82 7 c45 4 92 6 104 6 19 0 22 7 25 43
l3 42 148 3 147 3 0 34 0 35 425 0 425 0 0 -38z m-6132 -628 l-4 -34 78 0 78
0 0 -40 0 -40 145 0 145 0 0 -35 0 -35 530 0 530 0 0 35 0 35 135 0 135 0 0
40 0 40 70 0 70 0 0 35 c0 34 1 35 40 35 l40 0 0 -185 0 -185 -45 0 -45 0 0
-42 0 -43 -112 0 -113 0 -3 -42 -3 -43 -139 0 -139 0 -3 -37 -3 -38 -430 0
-430 0 -3 38 -3 37 -150 0 -149 0 0 45 0 45 -115 0 -115 0 0 39 c0 39 -1 40
-37 43 l-38 3 -1 180 c0 99 1 182 2 185 1 3 21 4 44 2 41 -4 42 -5 38 -38z
m2372 1 l0 -35 64 0 65 0 3 -37 3 -38 148 -3 147 -3 0 -34 0 -35 530 0 530 0
0 35 0 35 145 0 145 0 0 40 0 40 70 0 70 0 0 35 c0 34 1 35 40 35 l40 0 0
-185 0 -185 -45 0 -45 0 0 -46 0 -45 -112 2 -113 2 -3 -42 -3 -41 -145 0 -144
0 0 -40 0 -40 -432 2 -433 3 -3 38 -3 37 -145 0 -144 0 0 45 0 45 -120 0 -120
0 0 39 c0 39 -1 40 -37 43 l-38 3 -3 183 -2 182 45 0 c45 0 45 0 45 -35z
m2370 0 l0 -35 90 0 90 0 0 -40 0 -40 135 0 135 0 0 -35 0 -35 520 0 520 0 0
35 0 35 135 0 135 0 0 40 0 40 80 0 80 0 0 35 c0 34 1 35 40 35 l40 0 0 -185
0 -185 -40 0 c-40 0 -40 0 -40 -40 l0 -39 -112 -3 -113 -3 -3 -42 -3 -43 -150
0 -149 0 0 -40 0 -40 -427 2 -428 3 -3 38 -3 37 -145 0 -144 0 0 45 0 45 -110
0 -110 0 0 40 0 40 -50 0 -50 0 0 185 0 185 40 0 c39 0 40 -1 40 -35z m-4740
-680 l0 -34 73 -3 72 -3 3 -37 3 -38 144 0 144 0 3 -36 3 -37 522 -1 523 -1 0
38 0 37 129 0 130 0 3 38 3 37 78 3 77 3 0 34 c0 34 1 35 40 35 l40 0 0 -165
c0 -138 -3 -167 -15 -171 -8 -4 -15 -12 -15 -20 0 -8 -10 -14 -25 -14 -21 0
-25 -5 -25 -30 0 -25 -4 -30 -25 -30 -14 0 -25 -4 -25 -10 0 -5 -9 -10 -20
-10 -11 0 -20 -4 -20 -10 0 -6 -33 -10 -80 -10 l-80 0 0 -35 0 -35 -135 0
-135 0 0 -40 0 -40 -435 0 -435 0 0 40 0 40 -124 0 -125 0 -3 33 -3 32 -85 0
c-82 0 -85 1 -82 23 3 19 -1 22 -33 22 -28 0 -38 5 -42 19 -3 11 -11 22 -19
25 -8 3 -14 14 -14 25 0 16 -8 20 -37 23 l-38 3 -3 168 -2 167 45 0 c45 0 45
0 45 -35z m2365 -2 l0 -33 82 0 83 0 0 -40 0 -40 135 0 135 0 0 -35 0 -35 193
-1 c105 -1 344 -2 529 -3 l338 -1 0 38 0 37 139 0 140 0 3 38 3 37 73 3 72 3
0 34 c0 34 1 35 40 35 l40 0 0 -166 c0 -157 -1 -166 -20 -171 -11 -3 -20 -12
-20 -19 0 -8 -9 -14 -19 -14 -14 0 -21 -8 -23 -27 -2 -20 -9 -29 -25 -31 -13
-2 -23 -8 -23 -13 0 -5 -11 -9 -25 -9 -14 0 -25 -4 -25 -10 0 -6 -33 -10 -80
-10 l-80 0 0 -35 0 -35 -135 0 -135 0 0 -40 0 -40 -435 0 -435 0 0 40 0 40
-135 0 -135 0 0 35 0 35 -75 0 c-57 0 -75 3 -75 14 0 8 -15 17 -35 20 -26 5
-35 12 -35 26 0 11 -7 20 -15 20 -9 0 -15 9 -15 25 0 23 -4 25 -45 25 l-45 0
0 171 0 170 43 -3 c40 -3 42 -4 42 -35z m2375 2 l0 -35 90 0 90 0 0 -40 0 -40
135 0 135 0 0 -37 0 -38 515 3 515 2 0 35 0 35 140 0 140 0 0 40 0 40 80 0 80
0 0 35 c0 34 1 35 40 35 l40 0 0 -165 c0 -138 -3 -167 -15 -171 -8 -4 -15 -12
-15 -20 0 -8 -10 -14 -24 -14 -19 0 -25 -6 -28 -26 -2 -22 -11 -29 -53 -42
-27 -9 -54 -22 -58 -29 -5 -9 -30 -13 -72 -13 l-65 0 0 -30 0 -30 -140 0 -140
0 0 -40 0 -40 -430 0 -430 0 0 40 0 40 -135 0 -135 0 0 35 0 35 -85 0 c-78 0
-85 2 -85 20 0 16 -7 20 -30 20 -25 0 -30 4 -30 25 0 21 -5 25 -30 25 -23 0
-30 4 -30 20 0 15 -7 20 -25 20 l-25 0 0 170 0 170 40 0 c39 0 40 -1 40 -35z"/>
<path d="M5160 8149 c0 -41 0 -41 -35 -37 -35 4 -35 4 -35 -34 0 -38 0 -38
-40 -38 l-40 0 0 -40 0 -40 -40 0 -40 0 0 -75 0 -75 -35 0 -35 0 0 -299 0
-300 38 -3 37 -3 0 -73 0 -72 38 0 c37 0 37 0 37 -40 l0 -40 40 0 40 0 0 -41
c0 -40 1 -40 33 -37 31 3 32 1 35 -34 l3 -38 258 0 258 0 7 41 c6 40 7 41 41
37 35 -4 35 -3 35 34 0 38 0 38 40 38 l40 0 0 40 c0 39 1 40 35 40 l35 0 0 75
0 75 40 0 40 0 0 300 0 300 -40 0 -40 0 0 75 0 75 -35 0 c-34 0 -35 1 -35 40
l0 40 -40 0 c-40 0 -40 0 -40 38 0 38 0 38 -35 34 -36 -4 -40 2 -38 66 1 9
-58 12 -263 12 l-264 0 0 -41z m380 -299 l0 -40 40 0 c39 0 40 -1 40 -35 0
-33 2 -35 35 -35 l35 0 0 -230 0 -230 -34 0 c-33 0 -35 -2 -38 -37 -3 -36 -5
-38 -40 -41 -36 -3 -38 -5 -38 -38 l0 -34 -115 0 -115 0 0 34 c0 33 -2 35 -37
38 -36 3 -38 5 -41 41 -3 35 -5 37 -38 37 l-34 0 0 230 0 230 34 0 c33 0 35 2
38 37 3 35 5 37 38 38 33 0 35 2 38 38 l3 37 115 0 114 0 0 -40z"/>
<path d="M7208 8153 c-3 -36 -5 -38 -40 -41 l-38 -3 0 -75 0 -74 -35 0 c-33 0
-35 -2 -35 -35 0 -34 -1 -35 -40 -35 l-39 0 -3 -77 -3 -78 -34 -1 c-33 0 -35
-2 -35 -35 -1 -32 -3 -34 -38 -37 l-38 -3 0 -74 0 -74 -37 -3 -38 -3 -3 -77
-3 -78 -34 0 c-33 0 -35 -2 -35 -35 0 -34 -1 -35 -40 -35 l-40 0 0 -75 0 -75
-34 0 c-33 0 -35 -2 -38 -37 -3 -36 -5 -38 -40 -41 l-38 -3 0 -75 0 -74 -40 0
-40 0 0 -40 c0 -39 -1 -40 -35 -40 l-34 0 -3 -72 -3 -73 -37 -3 c-36 -3 -38
-5 -38 -38 0 -32 -2 -34 -35 -34 l-35 0 0 -75 0 -75 -75 0 -74 0 -3 -77 -3
-78 -37 -3 c-36 -3 -38 -5 -38 -37 0 -32 -2 -34 -37 -37 l-38 -3 -3 -77 -3
-78 -34 0 c-33 0 -35 -2 -35 -35 0 -34 -1 -35 -40 -35 l-40 0 0 -75 0 -75 -35
0 c-34 0 -35 -1 -35 -40 l0 -40 -40 0 -40 0 0 -75 0 -75 -37 0 c-37 0 -38 -1
-38 -37 0 -37 -1 -38 -38 -38 l-37 0 0 -112 0 -112 38 -3 c35 -3 37 -5 37 -35
l0 -33 72 0 73 0 0 35 c0 33 2 35 34 35 36 0 46 12 46 56 0 21 5 24 35 24 l35
0 0 75 0 75 39 0 c39 0 40 1 43 38 3 34 6 37 35 40 l32 3 3 72 3 72 38 3 37 3
0 75 0 74 75 0 75 0 0 75 0 75 40 0 40 0 0 75 0 75 35 0 c34 0 35 1 35 40 l0
40 40 0 c39 0 40 1 40 35 0 33 2 35 35 35 l34 0 3 78 3 77 38 0 c36 0 37 1 37
38 0 37 0 37 40 37 l40 0 0 75 0 75 35 0 c34 0 35 1 35 40 l0 40 40 0 40 0 0
75 0 75 40 0 40 0 0 40 c0 39 1 40 35 40 l35 0 0 75 0 75 38 0 c36 0 38 1 38
33 -1 30 1 32 37 35 l37 3 0 80 0 79 40 0 c39 0 40 1 40 35 0 33 2 35 35 35
l35 0 0 75 0 75 40 0 40 0 0 40 c0 40 0 40 38 40 l37 0 0 72 0 73 38 3 c36 3
37 4 37 43 0 39 0 39 40 39 l40 0 0 69 0 70 -37 3 c-36 3 -38 5 -41 41 l-3 37
-109 0 -109 0 -3 -37z"/>
<path d="M7130 6560 c0 -39 -1 -40 -35 -40 -33 0 -35 -2 -35 -35 0 -34 -1 -35
-40 -35 l-40 0 0 -40 c0 -40 0 -40 -38 -40 l-37 0 3 -74 c4 -71 3 -73 -21 -80
-14 -3 -33 -3 -41 0 -14 6 -16 -25 -16 -297 l0 -304 37 0 c37 0 38 -1 41 -37
3 -36 5 -38 38 -38 l34 0 0 -75 0 -75 40 0 40 0 0 -40 0 -40 75 0 75 0 0 -35
0 -35 225 0 225 0 0 34 c0 33 2 35 38 38 35 3 37 5 37 38 1 33 3 35 37 38 35
3 37 5 40 40 3 35 5 37 36 34 31 -3 40 7 32 43 -1 6 1 34 5 63 l7 54 34 -4 34
-4 0 303 0 303 -35 0 -35 0 0 75 0 75 -40 0 -40 0 0 41 0 41 -37 -4 c-37 -3
-38 -2 -41 35 -3 35 -5 37 -38 37 -33 0 -34 1 -34 40 l0 40 -265 0 -265 0 0
-40z m380 -300 l0 -40 40 0 c39 0 40 -1 40 -35 0 -33 2 -35 35 -35 l35 0 1
-105 c0 -58 0 -125 0 -150 0 -25 0 -81 0 -125 l-1 -80 -35 0 c-34 0 -35 -1
-35 -40 l0 -40 -40 0 c-39 0 -40 -1 -40 -35 0 -31 -3 -35 -32 -40 -18 -3 -69
-5 -113 -3 l-80 3 -3 37 c-3 35 -5 37 -40 40 -35 3 -37 5 -40 41 -3 35 -5 37
-38 37 l-34 0 0 230 0 230 38 0 c35 0 37 2 37 33 0 30 2 32 38 35 36 3 37 4
37 43 l0 39 115 0 115 0 0 -40z"/>
</g>
</svg>
