<svg width="260" height="38" viewBox="0 0 260 38" fill="none" xmlns="http://www.w3.org/2000/svg">
<g clip-path="url(#clip0_888_2072)">
<path d="M124.978 2.41162C134.211 2.41162 141.745 9.86547 141.745 19.0001C141.745 28.1347 134.211 35.5885 124.978 35.5885H19.2053C9.9723 35.5885 2.43821 28.1347 2.43821 19.0001C2.43821 9.86547 9.9723 2.41162 19.2053 2.41162H124.978ZM124.978 0.14624H19.2053C8.71662 0.14624 0.148438 8.55009 0.148438 19.0001C0.148438 29.377 8.64276 37.8539 19.2053 37.8539H125.052C135.54 37.8539 144.109 29.4501 144.109 19.0001C144.035 8.62316 135.54 0.14624 124.978 0.14624ZM35.5291 10.1578H35.2337H33.3132H32.7223L29.3984 19.1462C28.6598 21.1924 27.995 23.1655 27.5518 24.7732C27.1087 23.1655 26.5178 21.1924 25.7053 19.1462L22.3814 10.1578H21.7905H19.87H19.5746H17.6541H16.4723V27.8424H19.5007V11.327H20.0178C20.3871 13.1539 21.2734 15.7847 22.0121 17.7578L25.853 27.8424H26.9609H28.2905H29.3984L33.1655 17.6847C33.9041 15.7116 34.7166 13.0809 35.1598 11.2539H35.6768V27.8424H38.7053V10.1578H37.5234H35.5291ZM51.6314 10.1578H49.5632H49.4893H47.5689H46.9041L40.5518 27.8424H43.8757L45.2053 24.0424H53.9212L55.2507 27.8424H58.5746L52.2223 10.1578H51.6314ZM46.1655 21.4116L47.495 17.6847C48.1598 15.7116 48.9723 13.0809 49.3416 11.2539H49.7848C50.1541 13.0809 50.9666 15.7116 51.6314 17.6847L52.9609 21.4116H46.1655ZM66.995 12.4232C69.3587 12.4232 71.353 13.5193 72.3132 15.4193L75.1939 14.177C73.7905 11.327 70.9098 9.7924 66.9212 9.7924C62.3416 9.7924 59.6087 11.8385 59.6087 15.127C59.6087 17.8309 61.5291 19.7309 64.7791 20.1693L69.2109 20.827C70.7621 21.0462 71.7223 21.777 71.7223 23.0193C71.7223 24.627 70.1712 25.577 67.4382 25.577C65.0746 25.577 63.0803 24.4809 62.12 22.5809L59.2393 23.8232C60.6428 26.6732 63.5234 28.2078 67.5121 28.2078C72.0916 28.2078 74.8984 26.1616 74.8984 22.8732C74.8984 20.1693 72.978 18.2693 69.728 17.8309L65.2962 17.1732C63.6712 16.9539 62.7848 16.2232 62.7848 14.9809C62.7109 13.3732 64.2621 12.4232 66.995 12.4232ZM76.0064 12.8616H82.3587V27.8424H85.3871V12.8616H91.7393V10.2309H76.0064V12.8616ZM94.3246 27.8424H108.728V25.2116H97.353V19.8039H107.325V17.1732H97.353V12.8616H108.728V10.2309H94.3246V27.8424ZM127.489 15.5655C127.489 12.2039 125.273 10.2309 121.506 10.2309H114.711H113.455H111.683V27.9155H114.711V21.6309H124.165V27.9155H127.194V20.6809H124.609V20.2424C126.455 19.4385 127.489 17.8309 127.489 15.5655ZM120.842 18.927H114.711V12.8616H120.842C123.058 12.8616 124.313 13.8116 124.313 15.8578C124.313 17.977 123.058 18.927 120.842 18.927Z" fill="white"/>
<path d="M257.486 2.41162V35.5885H146.321V2.41162H257.486ZM259.776 0.14624H144.031V37.8539H259.702V0.14624H259.776ZM207.037 10.1578H204.969H204.895H202.974H202.31L195.957 27.8424H199.281L200.611 24.0424H209.327L210.656 27.8424H213.98L207.554 10.1578H207.037ZM201.571 21.4116L202.901 17.6847C203.565 15.7116 204.378 13.0809 204.747 11.2539H205.19C205.56 13.0809 206.372 15.7116 207.037 17.6847L208.366 21.4116H201.571ZM167.077 9.7924C161.463 9.7924 157.474 13.5193 157.474 19.0001C157.474 24.4809 161.463 28.2078 167.151 28.2078C171.065 28.2078 174.241 26.3809 175.866 23.0193L173.207 21.9232C172.099 24.2616 169.957 25.5039 167.224 25.5039C163.31 25.5039 160.651 22.9462 160.651 18.927C160.651 14.9078 163.31 12.3501 167.224 12.3501C169.957 12.3501 172.099 13.5924 173.207 15.9309L175.866 14.8347C174.168 11.6193 170.991 9.7924 167.077 9.7924ZM193.741 10.1578H190.713V17.1001H181.554V10.1578H178.526V27.8424H181.554V19.8039H190.713V27.9155H193.741V10.1578ZM241.974 10.1578V26.7462H241.457C241.088 24.9193 240.276 22.2885 239.463 20.3155L235.401 10.1578H234.884H232.963H232.668H230.747H229.565V27.8424H232.594V11.327H233.111C233.48 13.1539 234.293 15.7847 235.105 17.7578L239.168 27.9155H240.128H241.605H241.901H244.19H244.929V10.1578H241.974ZM219.52 10.1578H216.048V12.7885H219.52V25.1385H216.048V27.7693H226.02V25.1385H222.548V12.8616H226.02V10.2309H222.548H219.52V10.1578Z" fill="white"/>
</g>
<defs>
<clipPath id="clip0_888_2072">
<rect width="260" height="38" fill="white"/>
</clipPath>
</defs>
</svg>
