<svg width="210" height="32" viewBox="0 0 210 32" fill="none" xmlns="http://www.w3.org/2000/svg">
<path d="M96.8343 3.70264H96.3891V28.5309H96.8343V3.70264Z" fill="#E2E8F4"/>
<path d="M38.66 24.3997H42.9962V11.5527H49.5985V24.3997H53.9346V7.83309H38.66V24.3997ZM80.7639 14.0415H77.0622V11.5617H85.3084V7.83309H72.726V24.3997H80.9812C84.287 24.3997 86.7648 22.7354 86.7648 19.2189C86.7648 15.7026 84.2751 14.0415 80.7639 14.0415ZM80.35 20.8802H77.0741V17.5699H80.35C81.3745 17.5699 82.4078 17.9733 82.4078 19.2189C82.4078 20.4648 81.3745 20.8802 80.35 20.8802ZM64.5425 20.8802C61.6506 20.8802 60.0218 18.7529 60.0218 16.1239C60.0218 14.0116 61.2129 11.3615 64.4621 11.3615C65.1904 11.368 65.9087 11.5348 66.5656 11.8502C67.2228 12.1657 67.8028 12.622 68.2651 13.187L70.9007 10.5429C70.0885 9.56577 69.0722 8.78005 67.9234 8.24147C66.7746 7.70292 65.5215 7.42476 64.2534 7.42677C59.4677 7.42677 55.6885 10.982 55.6885 16.1239C55.6772 17.9495 56.2434 19.7317 57.3055 21.2142C58.3676 22.6968 59.8713 23.8031 61.5998 24.3738C63.3286 24.9448 65.1931 24.9508 66.9253 24.3912C68.6575 23.8316 70.1684 22.7352 71.24 21.2595L68.5867 18.5977C68.167 19.2956 67.5732 19.8721 66.8642 20.2701C66.1552 20.6681 65.3549 20.8744 64.5425 20.8681V20.8802Z" fill="#E2E8F4"/>
<path d="M22.1068 3.70264L13.8288 11.9777H22.1068V28.5309L30.3818 20.2736V3.70264H22.1068Z" fill="#EA5614"/>
<path d="M13.8288 28.5309L22.107 20.2559H13.8288V3.70264L5.55374 11.9598V28.5309H13.8288Z" fill="#E2E8F4"/>
<mask id="mask0_3261_5442" style="mask-type:luminance" maskUnits="userSpaceOnUse" x="106" y="5" width="98" height="22">
<path d="M203.942 5.80273H106.355V26.4308H203.942V5.80273Z" fill="white"/>
</mask>
<g mask="url(#mask0_3261_5442)">
<mask id="mask1_3261_5442" style="mask-type:luminance" maskUnits="userSpaceOnUse" x="106" y="5" width="98" height="22">
<path d="M203.942 5.80273H106.355V26.3002H203.942V5.80273Z" fill="white"/>
</mask>
<g mask="url(#mask1_3261_5442)">
<mask id="mask2_3261_5442" style="mask-type:luminance" maskUnits="userSpaceOnUse" x="106" y="5" width="98" height="22">
<path d="M203.942 5.80273H106.355V26.3002H203.942V5.80273Z" fill="white"/>
</mask>
<g mask="url(#mask2_3261_5442)">
<mask id="mask3_3261_5442" style="mask-type:luminance" maskUnits="userSpaceOnUse" x="106" y="5" width="98" height="22">
<path d="M203.925 5.80273H106.371V26.3002H203.925V5.80273Z" fill="white"/>
</mask>
<g mask="url(#mask3_3261_5442)">
<path d="M106.371 12.6352H113.2V26.3002L120.029 19.4678V5.80273H113.2L106.371 12.6352Z" fill="#E2E8F4"/>
<path d="M128.809 9.21896C128.809 11.1057 127.28 12.6352 125.395 12.6352C123.509 12.6352 121.98 11.1057 121.98 9.21896C121.98 7.33223 123.509 5.80273 125.395 5.80273C127.28 5.80273 128.809 7.33223 128.809 9.21896Z" fill="#FF6725"/>
<path fill-rule="evenodd" clip-rule="evenodd" d="M187.342 21.6144C190.413 21.6144 192.902 19.1237 192.902 16.0509C192.902 12.9782 190.413 10.4873 187.342 10.4873C184.271 10.4873 181.781 12.9782 181.781 16.0509C181.781 19.1237 184.271 21.6144 187.342 21.6144ZM187.342 19.6624C189.336 19.6624 190.951 18.0454 190.951 16.0509C190.951 14.0563 189.336 12.4395 187.342 12.4395C185.348 12.4395 183.732 14.0563 183.732 16.0509C183.732 18.0454 185.348 19.6624 187.342 19.6624Z" fill="#E2E8F4"/>
<path d="M194.658 10.6831H196.609V15.173H201.974V10.6831H203.925V21.4199H201.974V16.9298H196.609V21.4199H194.658V10.6831Z" fill="#E2E8F4"/>
<path d="M161.099 10.6831H159.148V21.4199H161.099V16.5276L166.075 21.4199H169.001L163.345 15.858L168.611 10.6831H166.075L161.099 15.5721V10.6831Z" fill="#E2E8F4"/>
<path fill-rule="evenodd" clip-rule="evenodd" d="M145.393 10.6831H135.638V12.6352H139.54V21.4196H141.491V12.6352H145.393V10.6831Z" fill="#E2E8F4"/>
<path fill-rule="evenodd" clip-rule="evenodd" d="M174.659 21.6144C176.856 21.6144 178.754 20.3407 179.658 18.4911H177.32C176.661 19.2109 175.713 19.6624 174.659 19.6624C172.969 19.6624 171.549 18.4993 171.158 16.9294H180.151C180.197 16.6433 180.22 16.3497 180.22 16.0509C180.22 12.9782 177.73 10.4873 174.659 10.4873C171.588 10.4873 169.099 12.9782 169.099 16.0509C169.099 19.1237 171.588 21.6144 174.659 21.6144ZM178.162 15.1723C177.769 13.6024 176.35 12.4395 174.659 12.4395C172.969 12.4395 171.549 13.6024 171.158 15.1723H178.162Z" fill="#E2E8F4"/>
<path fill-rule="evenodd" clip-rule="evenodd" d="M151.832 21.6144C154.903 21.6144 157.392 19.1237 157.392 16.0509C157.392 12.9782 154.903 10.4873 151.832 10.4873C148.761 10.4873 146.271 12.9782 146.271 16.0509C146.271 19.1237 148.761 21.6144 151.832 21.6144ZM151.832 19.6624C153.825 19.6624 155.441 18.0454 155.441 16.0509C155.441 14.0563 153.825 12.4395 151.832 12.4395C149.838 12.4395 148.222 14.0563 148.222 16.0509C148.222 18.0454 149.838 19.6624 151.832 19.6624Z" fill="#E2E8F4"/>
</g>
</g>
</g>
</g>
</svg>
