<svg width="260" height="38" viewBox="0 0 260 38" fill="none" xmlns="http://www.w3.org/2000/svg">
<g clip-path="url(#clip0_1201_3811)">
<path d="M125.359 0.146484H19.8856C9.42672 0.146484 0.882812 8.55033 0.882812 19.0003C0.882812 29.3773 9.35307 37.8542 19.8856 37.8542H125.432C135.891 37.8542 144.435 29.4503 144.435 19.0003C144.362 8.62341 135.891 0.146484 125.359 0.146484ZM39.1831 27.8426H36.1633V11.3273H35.6477C35.2794 13.1542 34.3956 15.7849 33.659 17.758L29.9026 27.9157H28.7978H27.472H26.5145L22.7582 17.758C22.0216 15.7849 21.2114 13.1542 20.7695 11.3273H20.2539V27.9157H17.2341V10.158H18.4126H20.3276H20.6222H22.5372H23.1264L26.4409 19.1465C27.1774 21.1926 27.8403 23.1657 28.2822 24.7734C28.7242 23.1657 29.3134 21.1926 30.1236 19.1465L33.4381 10.158H34.0273H35.9423H36.2369H38.1519H39.3304V27.8426H39.1831ZM55.829 27.8426L54.5032 24.0426H45.812L44.4862 27.8426H41.1718L47.506 10.158H48.1689H50.0839H50.1576H52.2199H52.7355L59.0698 27.8426H55.829ZM65.7723 17.1734L70.1916 17.8311C73.4324 18.3426 75.3474 20.1696 75.3474 22.8734C75.3474 26.1619 72.5485 28.208 67.982 28.208C64.0046 28.208 61.1321 26.6734 59.7327 23.8234L62.6052 22.5811C63.489 24.4811 65.5514 25.5773 67.9083 25.5773C70.6335 25.5773 72.1803 24.6273 72.1803 23.0196C72.1803 21.7773 71.2964 21.0465 69.676 20.8273L65.2567 20.1696C62.0159 19.658 60.1009 17.8311 60.1009 15.1273C60.1009 11.8388 62.8262 9.79264 67.3927 9.79264C71.3701 9.79264 74.2426 11.3273 75.642 14.1773L72.7695 15.4196C71.8857 13.5196 69.8233 12.4234 67.4664 12.4234C64.7412 12.4234 63.2681 13.3734 63.2681 14.9811C63.2681 16.2234 64.2256 16.9542 65.7723 17.1734ZM92.2143 12.8619H85.88V27.8426H82.8602V12.8619H76.5259V10.2311H92.2143V12.8619ZM109.155 12.8619H97.812V17.1734H107.755V19.8042H97.812V25.2119H109.155V27.8426H94.7922V10.158H109.155V12.8619ZM127.568 20.608V27.8426H124.549V21.558H115.121V27.8426H112.101V10.158H113.869H115.121H121.897C125.653 10.158 127.863 12.1311 127.863 15.4926C127.863 17.8311 126.832 19.3657 124.99 20.1696V20.608H127.568Z" fill="#FF4713"/>
<path d="M50.3747 11.3281H49.9328C49.5645 13.155 48.7543 15.7858 48.0914 17.7589L46.7656 21.4858H53.5418L52.2161 17.7589C51.5532 15.7858 50.743 13.155 50.3747 11.3281Z" fill="#FF4713"/>
<path d="M121.238 12.8613H115.125V18.9267H121.238C123.448 18.9267 124.7 17.9767 124.7 15.9306C124.7 13.7383 123.448 12.8613 121.238 12.8613Z" fill="#FF4713"/>
<path d="M144.359 0.146484V37.8542H259.702V0.146484H144.359ZM167.413 28.208C161.815 28.208 157.764 24.4811 157.764 19.0003C157.764 13.5196 161.742 9.79264 167.34 9.79264C171.243 9.79264 174.41 11.6196 176.031 14.908L173.379 16.0042C172.274 13.6657 170.138 12.4234 167.413 12.4234C163.51 12.4234 160.858 14.9811 160.858 19.0003C160.858 23.0196 163.51 25.5773 167.413 25.5773C170.138 25.5773 172.348 24.3349 173.379 21.9965L176.031 23.0926C174.484 26.3811 171.317 28.208 167.413 28.208ZM193.929 27.8426H190.909V19.8042H181.776V27.9157H178.756V10.158H181.776V17.1003H190.909V10.158H193.929V27.8426ZM210.796 27.8426L209.47 24.0426H200.779L199.453 27.8426H196.138L202.473 10.158H203.136H205.051H205.124H207.187H207.702L214.036 27.8426H210.796ZM226.116 12.8619H222.654V25.2119H226.116V27.8426H216.172V25.2119H219.634V12.8619H216.172V10.2311H219.634H222.654H226.116V12.8619ZM245.045 27.8426H244.308H242.025H241.73H240.257H239.3L235.249 17.6849C234.439 15.7119 233.629 13.0811 233.26 11.2542H232.745V27.8426H229.725V10.158H230.903H232.818H233.113H235.028H235.544L239.594 20.3157C240.405 22.2888 241.215 24.9196 241.583 26.7465H242.099V10.158H245.119V27.8426H245.045Z" fill="#E2E8F4"/>
<path d="M205.343 11.3281H204.902C204.533 13.155 203.723 15.7858 203.06 17.7589L201.734 21.4858H208.511L207.185 17.7589C206.522 15.7858 205.712 13.155 205.343 11.3281Z" fill="#E2E8F4"/>
</g>
<defs>
<clipPath id="clip0_1201_3811">
<rect width="260" height="38" fill="#E2E8F4"/>
</clipPath>
</defs>
</svg>
