<svg width="173" height="34" viewBox="0 0 173 34" fill="none" xmlns="http://www.w3.org/2000/svg">
<g clip-path="url(#clip0_8840_7407)">
<g clip-path="url(#clip1_8840_7407)">
<path d="M143.445 3H172.445V17.5849C172.445 21.3238 170.45 24.7788 167.212 26.6485L157.945 32L148.677 26.6485C145.439 24.7788 143.445 21.3238 143.445 17.5849V3Z" fill="#FFDD2D"/>
<path fill-rule="evenodd" clip-rule="evenodd" d="M151.418 10.6757V15.2115C152.037 14.511 153.162 14.037 154.449 14.037H155.847V19.3098C155.847 20.7126 155.467 21.9405 154.903 22.6159H160.985C160.422 21.9398 160.042 20.7135 160.042 19.3125V14.037H161.441C162.727 14.037 163.853 14.511 164.472 15.2115V10.6757H151.418Z" fill="#333333"/>
</g>
</g>
<path d="M123.246 17.3872L127.245 13.0503L127.628 13.4077L123.615 17.7612L127.907 22.103L127.536 22.4741L123.258 18.147L118.999 22.77L118.615 22.4126L122.889 17.7739L118.584 13.4185L118.956 13.0474L123.246 17.3872Z" fill="black"/>
<path d="M73.1109 8.56995L69.6555 16.3222H69.0443L65.5891 8.56995H62.6885L67.9376 19.7412V26.3473H69.1731H70.7641V19.7412L76.0111 8.56995H73.1109Z" fill="#0B1F35"/>
<path d="M26.5703 10.9764H21.7391V26.3602H18.784V10.9764H13.9033V8.58289H26.5703V10.9764Z" fill="#0B1F35"/>
<path d="M78.2246 24.5657L85.7362 10.9246H78.3758V8.58289H89.1916V10.6017L81.7563 23.9668H89.0897V26.3602H78.2246V24.5657Z" fill="#0B1F35"/>
<path d="M92.457 8.58289V26.3602H103.047V23.8657H95.4091V18.4797H101.468V16.0369H95.4091V11.0503H103.02V8.58289H92.457Z" fill="#0B1F35"/>
<path d="M38.2421 20.8996V13.8696C38.2421 11.8729 36.9155 10.6972 34.8637 10.6972C32.76 10.6972 31.6091 12.0677 31.6091 14.089V20.8996C31.6091 22.9185 32.8095 24.1978 34.9628 24.1978C37.017 24.1978 38.2421 22.8495 38.2421 20.8996ZM28.6541 21.0007V14.1161C28.6541 10.3028 31.3765 8.25684 34.9132 8.25684C38.3782 8.25684 41.2219 9.95274 41.2219 13.9263V20.8085C41.2219 24.7721 38.393 26.6677 34.938 26.6677C31.4829 26.6677 28.6541 24.9964 28.6541 20.9983" fill="#0B1F35"/>
<path d="M9.13761 8.55725H5.30387L0 26.3864H2.72247L4.04905 21.6216H10.3751L11.7017 26.3864H14.4242L9.13761 8.55725ZM4.68265 19.3538L6.9101 11.4659H7.52141L9.74892 19.3538H4.68265Z" fill="#0B1F35"/>
<path d="M60.1265 26.3595H57.451V11.2296H56.8224L54.8449 19.8816H49.9618L47.9818 11.2296H47.3532V26.3595H44.6777V8.56494H50.1152L52.0952 17.217H52.709L54.689 8.56494H60.1265V26.3595Z" fill="#0B1F35"/>
<defs>
<clipPath id="clip0_8840_7407">
<rect width="29" height="29" fill="white" transform="translate(143.445 3)"/>
</clipPath>
<clipPath id="clip1_8840_7407">
<rect width="29" height="29" fill="white" transform="translate(143.445 3)"/>
</clipPath>
</defs>
</svg>
